<svg width="24" height="24" viewBox="0 0 24 24" fill="none" xmlns="http://www.w3.org/2000/svg">
<path d="M0.0999756 3.5001C0.0999756 2.59836 0.458189 1.73356 1.09581 1.09593C1.73344 0.458311 2.59824 0.100098 3.49998 0.100098H20.5C21.4017 0.100098 22.2665 0.458311 22.9041 1.09593C23.5418 1.73356 23.9 2.59836 23.9 3.5001V20.5001C23.9 21.4018 23.5418 22.2666 22.9041 22.9043C22.2665 23.5419 21.4017 23.9001 20.5 23.9001H3.49998C2.59824 23.9001 1.73344 23.5419 1.09581 22.9043C0.458189 22.2666 0.0999756 21.4018 0.0999756 20.5001V3.5001ZM3.49998 1.8001C3.04911 1.8001 2.61671 1.9792 2.29789 2.29802C1.97908 2.61683 1.79998 3.04923 1.79998 3.5001V20.5001C1.79998 20.951 1.97908 21.3834 2.29789 21.7022C2.61671 22.021 3.04911 22.2001 3.49998 22.2001H20.5C20.9508 22.2001 21.3832 22.021 21.7021 21.7022C22.0209 21.3834 22.2 20.951 22.2 20.5001V3.5001C22.2 3.04923 22.0209 2.61683 21.7021 2.29802C21.3832 1.9792 20.9508 1.8001 20.5 1.8001H3.49998ZM12 5.2001C12.2254 5.2001 12.4416 5.28965 12.601 5.44906C12.7604 5.60846 12.85 5.82466 12.85 6.0501V11.1501H17.95C18.1754 11.1501 18.3916 11.2397 18.551 11.3991C18.7104 11.5585 18.8 11.7747 18.8 12.0001C18.8 12.2255 18.7104 12.4417 18.551 12.6011C18.3916 12.7605 18.1754 12.8501 17.95 12.8501H12.85V17.9501C12.85 18.1755 12.7604 18.3917 12.601 18.5511C12.4416 18.7105 12.2254 18.8001 12 18.8001C11.7745 18.8001 11.5583 18.7105 11.3989 18.5511C11.2395 18.3917 11.15 18.1755 11.15 17.9501V12.8501H6.04998C5.82454 12.8501 5.60834 12.7605 5.44894 12.6011C5.28953 12.4417 5.19998 12.2255 5.19998 12.0001C5.19998 11.7747 5.28953 11.5585 5.44894 11.3991C5.60834 11.2397 5.82454 11.1501 6.04998 11.1501H11.15V6.0501C11.15 5.82466 11.2395 5.60846 11.3989 5.44906C11.5583 5.28965 11.7745 5.2001 12 5.2001Z" fill="#39C5E3"/>
</svg>
