<svg width="28" height="28" viewBox="0 0 28 28" fill="none" xmlns="http://www.w3.org/2000/svg">
<path d="M14.876 4.58553L14.5227 4.80573V5.222V7V7.75H15.2727H16.5455C18.6851 7.75 20.7533 8.68431 22.2902 10.3749C23.8292 12.0678 24.7045 14.3779 24.7045 16.8V17.55H25.4545H26.7273C26.8416 17.55 26.9675 17.5993 27.0723 17.7146C27.1792 17.8322 27.25 18.0058 27.25 18.2V22.4C27.25 22.5942 27.1792 22.7678 27.0723 22.8854L27.6272 23.3899L27.0723 22.8854C26.9675 23.0007 26.8416 23.05 26.7273 23.05H25.4545H24.7045V23.8V25.2C24.7045 25.7655 24.4997 26.2952 24.154 26.6754C23.8106 27.0532 23.361 27.25 22.9091 27.25H5.09091C4.63904 27.25 4.1894 27.0532 3.84596 26.6754L3.291 27.1799L3.84596 26.6754C3.50035 26.2952 3.29545 25.7655 3.29545 25.2V23.8V23.05H2.54545H1.27273C1.1584 23.05 1.03249 23.0007 0.927729 22.8854C0.820804 22.7678 0.75 22.5942 0.75 22.4V18.2C0.75 18.0058 0.820803 17.8322 0.927729 17.7146C1.03249 17.5993 1.15841 17.55 1.27273 17.55H2.54545H3.29545V16.8C3.29545 14.3779 4.1708 12.0678 5.70982 10.3749C7.24668 8.68431 9.31494 7.75 11.4545 7.75H12.7273H13.4773V7V5.222V4.80573L13.124 4.58553C12.5951 4.25581 12.2045 3.59522 12.2045 2.8C12.2045 2.23446 12.4094 1.70477 12.755 1.32461C13.0985 0.946816 13.5481 0.75 14 0.75C14.4519 0.75 14.9015 0.946816 15.245 1.32461C15.5906 1.70477 15.7955 2.23446 15.7955 2.8C15.7955 3.59522 15.4049 4.25581 14.876 4.58553ZM8.27273 14.65C7.20563 14.65 6.19851 15.1169 5.46789 15.9206C4.73942 16.7219 4.34091 17.7947 4.34091 18.9C4.34091 20.0053 4.73942 21.0781 5.46789 21.8794C6.19851 22.6831 7.20563 23.15 8.27273 23.15C9.33983 23.15 10.3469 22.6831 11.0776 21.8794C11.806 21.0781 12.2045 20.0053 12.2045 18.9C12.2045 17.7947 11.806 16.7219 11.0776 15.9206C10.3469 15.1169 9.33983 14.65 8.27273 14.65ZM19.7273 14.65C18.6602 14.65 17.6531 15.1169 16.9224 15.9206C16.194 16.7219 15.7955 17.7947 15.7955 18.9C15.7955 20.0053 16.194 21.0781 16.9224 21.8794C17.6531 22.6831 18.6602 23.15 19.7273 23.15C20.7944 23.15 21.8015 22.6831 22.5321 21.8794C23.2606 21.0781 23.6591 20.0053 23.6591 18.9C23.6591 17.7947 23.2606 16.7219 22.5321 15.9206C21.8015 15.1169 20.7944 14.65 19.7273 14.65Z" stroke="#39C5E3" stroke-width="1.5"/>
</svg>
