<svg width="4" height="13" viewBox="0 0 4 13" fill="none" xmlns="http://www.w3.org/2000/svg">
<path d="M0.503052 11.4999C0.503052 11.3029 0.54185 11.1079 0.617232 10.9259C0.692614 10.7439 0.803104 10.5786 0.942392 10.4393C1.08168 10.3 1.24704 10.1895 1.42903 10.1141C1.61102 10.0387 1.80607 9.99993 2.00305 9.99993C2.20003 9.99993 2.39509 10.0387 2.57708 10.1141C2.75907 10.1895 2.92442 10.3 3.06371 10.4393C3.203 10.5786 3.31349 10.7439 3.38887 10.9259C3.46425 11.1079 3.50305 11.3029 3.50305 11.4999C3.50305 11.8978 3.34502 12.2793 3.06371 12.5606C2.78241 12.8419 2.40088 12.9999 2.00305 12.9999C1.60523 12.9999 1.2237 12.8419 0.942392 12.5606C0.661087 12.2793 0.503052 11.8978 0.503052 11.4999V11.4999ZM0.650052 2.49243C0.630077 2.30319 0.65011 2.11187 0.708852 1.93087C0.767594 1.74988 0.863733 1.58325 0.99103 1.44181C1.11833 1.30037 1.27394 1.18727 1.44777 1.10986C1.6216 1.03244 1.80976 0.992432 2.00005 0.992432C2.19034 0.992432 2.37851 1.03244 2.55234 1.10986C2.72616 1.18727 2.88178 1.30037 3.00907 1.44181C3.13637 1.58325 3.23251 1.74988 3.29125 1.93087C3.34999 2.11187 3.37003 2.30319 3.35005 2.49243L2.82505 7.75293C2.80372 7.95688 2.70761 8.14569 2.55525 8.28294C2.4029 8.42019 2.20511 8.49615 2.00005 8.49615C1.79499 8.49615 1.5972 8.42019 1.44485 8.28294C1.2925 8.14569 1.19638 7.95688 1.17505 7.75293L0.650052 2.49243Z" fill="#16E3FF"/>
</svg>
