<svg width="30" height="30" viewBox="0 0 30 30" fill="none" xmlns="http://www.w3.org/2000/svg">
<path d="M29 27.2222V12.1111C29 11.8351 28.9367 11.5629 28.8152 11.3161C28.6937 11.0692 28.5173 10.8545 28.3 10.6889L16.05 1.35556C15.7471 1.12476 15.3786 1 15 1C14.6214 1 14.2529 1.12476 13.95 1.35556L1.7 10.6889C1.48266 10.8545 1.30625 11.0692 1.18475 11.3161C1.06325 11.5629 1 11.8351 1 12.1111V27.2222C1 27.6937 1.18437 28.1459 1.51256 28.4793C1.84075 28.8127 2.28587 29 2.75 29H9.75C10.2141 29 10.6592 28.8127 10.9874 28.4793C11.3156 28.1459 11.5 27.6937 11.5 27.2222V21.8889C11.5 21.4174 11.6844 20.9652 12.0126 20.6318C12.3408 20.2984 12.7859 20.1111 13.25 20.1111H16.75C17.2141 20.1111 17.6592 20.2984 17.9874 20.6318C18.3156 20.9652 18.5 21.4174 18.5 21.8889V27.2222C18.5 27.6937 18.6844 28.1459 19.0126 28.4793C19.3408 28.8127 19.7859 29 20.25 29H27.25C27.7141 29 28.1592 28.8127 28.4874 28.4793C28.8156 28.1459 29 27.6937 29 27.2222Z" fill="#39C5E3" stroke="#39C5E3" stroke-width="1.5" stroke-linecap="round" stroke-linejoin="round"/>
</svg>
