<svg width="30" height="30" viewBox="0 0 30 30" fill="none" xmlns="http://www.w3.org/2000/svg">
<path d="M18.1111 8V4.5C18.1111 3.57174 17.7833 2.6815 17.1999 2.02513C16.6164 1.36875 15.8251 1 15 1H4.11111C3.28599 1 2.49467 1.36875 1.91122 2.02513C1.32778 2.6815 1 3.57174 1 4.5V25.5C1 26.4283 1.32778 27.3185 1.91122 27.9749C2.49467 28.6313 3.28599 29 4.11111 29H15C15.8251 29 16.6164 28.6313 17.1999 27.9749C17.7833 27.3185 18.1111 26.4283 18.1111 25.5V22" stroke="#39C5E3" stroke-width="2" stroke-linecap="round" stroke-linejoin="round"/>
<path d="M7.22223 15H29M29 15L24.3333 9.75M29 15L24.3333 20.25" stroke="#39C5E3" stroke-width="2" stroke-linecap="round" stroke-linejoin="round"/>
</svg>
