<svg width="20" height="20" viewBox="0 0 20 20" fill="none" xmlns="http://www.w3.org/2000/svg">
<path d="M9.99992 16.6667C9.55789 16.6667 9.13397 16.4911 8.82141 16.1786C8.50885 15.866 8.33325 15.4421 8.33325 15C8.33325 14.558 8.50885 14.1341 8.82141 13.8215C9.13397 13.509 9.55789 13.3334 9.99992 13.3334C10.4419 13.3334 10.8659 13.509 11.1784 13.8215C11.491 14.1341 11.6666 14.558 11.6666 15C11.6666 15.4421 11.491 15.866 11.1784 16.1786C10.8659 16.4911 10.4419 16.6667 9.99992 16.6667ZM9.99992 11.6667C9.55789 11.6667 9.13397 11.4911 8.82141 11.1786C8.50885 10.866 8.33325 10.4421 8.33325 10C8.33325 9.55801 8.50885 9.13409 8.82141 8.82153C9.13397 8.50897 9.55789 8.33337 9.99992 8.33337C10.4419 8.33337 10.8659 8.50897 11.1784 8.82153C11.491 9.13409 11.6666 9.55801 11.6666 10C11.6666 10.4421 11.491 10.866 11.1784 11.1786C10.8659 11.4911 10.4419 11.6667 9.99992 11.6667ZM9.99992 6.66671C9.55789 6.66671 9.13397 6.49111 8.82141 6.17855C8.50885 5.86599 8.33325 5.44207 8.33325 5.00004C8.33325 4.55801 8.50885 4.13409 8.82141 3.82153C9.13397 3.50897 9.55789 3.33337 9.99992 3.33337C10.4419 3.33337 10.8659 3.50897 11.1784 3.82153C11.491 4.13409 11.6666 4.55801 11.6666 5.00004C11.6666 5.44207 11.491 5.86599 11.1784 6.17855C10.8659 6.49111 10.4419 6.66671 9.99992 6.66671Z" fill="#39C5E3"/>
</svg>
