<svg width="21" height="24" viewBox="0 0 21 24" fill="none" xmlns="http://www.w3.org/2000/svg">
<path d="M10.5177 13.2222C13.8031 13.2222 16.4663 10.4862 16.4663 7.11112C16.4663 3.73604 13.8031 1 10.5177 1C7.23243 1 4.56915 3.73604 4.56915 7.11112C4.56915 10.4862 7.23243 13.2222 10.5177 13.2222Z" stroke="#39C5E3" stroke-width="1.5" stroke-linecap="round" stroke-linejoin="round"/>
<path d="M20.0355 23.0001C20.0355 20.4069 19.0327 17.9198 17.2478 16.0861C15.4629 14.2524 13.042 13.2223 10.5177 13.2223C7.99348 13.2223 5.5726 14.2524 3.78768 16.0861C2.00276 17.9198 1 20.4069 1 23.0001M20.0355 23.0001C20.0355 20.4069 19.0327 17.9198 17.2478 16.0861C15.4629 14.2524 13.042 13.2223 10.5177 13.2223C7.99348 13.2223 5.5726 14.2524 3.78768 16.0861C2.00276 17.9198 1 20.4069 1 23.0001H20.0355Z" stroke="#39C5E3" stroke-width="1.5" stroke-linecap="round" stroke-linejoin="round"/>
</svg>
