<svg width="21" height="24" viewBox="0 0 21 24" fill="none" xmlns="http://www.w3.org/2000/svg">
<path d="M10.5177 13.2222C13.803 13.2222 16.4662 10.4861 16.4662 7.11108C16.4662 3.73602 13.803 1 10.5177 1C7.23241 1 4.56915 3.73602 4.56915 7.11108C4.56915 10.4861 7.23241 13.2222 10.5177 13.2222Z" fill="#39C5E3" stroke="#39C5E3" stroke-width="1.40425" stroke-linecap="round" stroke-linejoin="round"/>
<path d="M20.0353 22.9999C20.0353 20.4067 19.0326 17.9197 17.2477 16.086C15.4628 14.2523 13.0419 13.2222 10.5177 13.2222C7.99343 13.2222 5.57257 14.2523 3.78766 16.086C2.00275 17.9197 1 20.4067 1 22.9999H20.0353ZM20.0353 22.9999C20.0353 20.4067 19.0326 17.9197 17.2477 16.086C15.4628 14.2523 13.0419 13.2222 10.5177 13.2222C7.99343 13.2222 5.57257 14.2523 3.78766 16.086C2.00275 17.9197 1 20.4067 1 22.9999" fill="#39C5E3"/>
<path d="M20.0353 22.9999C20.0353 20.4067 19.0326 17.9197 17.2477 16.086C15.4628 14.2523 13.0419 13.2222 10.5177 13.2222C7.99343 13.2222 5.57257 14.2523 3.78766 16.086C2.00275 17.9197 1 20.4067 1 22.9999M20.0353 22.9999C20.0353 20.4067 19.0326 17.9197 17.2477 16.086C15.4628 14.2523 13.0419 13.2222 10.5177 13.2222C7.99343 13.2222 5.57257 14.2523 3.78766 16.086C2.00275 17.9197 1 20.4067 1 22.9999H20.0353Z" stroke="#39C5E3" stroke-width="1.40425" stroke-linecap="round" stroke-linejoin="round"/>
</svg>
