<svg width="28" height="28" viewBox="0 0 28 28" fill="none" xmlns="http://www.w3.org/2000/svg">
<path d="M3.76923 27.25H1.61538C1.35396 27.25 1.12109 27.159 0.964333 27.0232C0.810953 26.8903 0.75 26.7349 0.75 26.6V18.2C0.75 18.0651 0.810954 17.9097 0.964333 17.7768C1.12109 17.641 1.35396 17.55 1.61538 17.55H3.76923C4.03065 17.55 4.26352 17.641 4.42028 17.7768C4.57366 17.9097 4.63462 18.0651 4.63462 18.2V26.6C4.63462 26.7349 4.57366 26.8903 4.42028 27.0232C4.26352 27.159 4.03065 27.25 3.76923 27.25ZM18.8462 27.25H16.6923C16.4309 27.25 16.198 27.159 16.0413 27.0232C15.8879 26.8903 15.8269 26.7349 15.8269 26.6V12.6C15.8269 12.4651 15.8879 12.3097 16.0413 12.1768C16.198 12.041 16.4309 11.95 16.6923 11.95H18.8462C19.1076 11.95 19.3404 12.041 19.4972 12.1768C19.6506 12.3097 19.7115 12.4651 19.7115 12.6V26.6C19.7115 26.7349 19.6506 26.8903 19.4972 27.0232C19.3404 27.159 19.1076 27.25 18.8462 27.25ZM26.3846 27.25H24.2308C23.9693 27.25 23.7365 27.159 23.5797 27.0232C23.4263 26.8903 23.3654 26.7349 23.3654 26.6V6.06667C23.3654 5.93174 23.4263 5.77641 23.5797 5.64348C23.7365 5.50763 23.9693 5.41667 24.2308 5.41667H26.3846C26.646 5.41667 26.8789 5.50763 27.0357 5.64348C27.189 5.77641 27.25 5.93174 27.25 6.06667V26.6C27.25 26.7349 27.189 26.8903 27.0357 27.0232C26.8789 27.159 26.646 27.25 26.3846 27.25ZM11.3077 27.25H9.15385C8.89242 27.25 8.65955 27.159 8.50279 27.0232C8.34941 26.8903 8.28846 26.7349 8.28846 26.6V1.4C8.28846 1.26507 8.34942 1.10975 8.50279 0.976817C8.65955 0.84096 8.89242 0.75 9.15385 0.75H11.3077C11.5691 0.75 11.802 0.84096 11.9587 0.976817C12.1121 1.10975 12.1731 1.26507 12.1731 1.4V26.6C12.1731 26.7349 12.1121 26.8903 11.9587 27.0232C11.802 27.159 11.5691 27.25 11.3077 27.25Z" fill="#39C5E3" stroke="#39C5E3" stroke-width="1.5"/>
</svg>
