<svg width="20" height="21" viewBox="0 0 20 21" fill="none" xmlns="http://www.w3.org/2000/svg">
<path fill-rule="evenodd" clip-rule="evenodd" d="M14.3248 13.303L19.7048 18.4678C19.8939 18.6494 20 18.8958 20 19.1526C19.9999 19.4094 19.8935 19.6557 19.7043 19.8372C19.515 20.0187 19.2584 20.1207 18.9909 20.1206C18.7234 20.1205 18.4669 20.0184 18.2778 19.8367L12.8978 14.6719C11.2895 15.8678 9.26705 16.4305 7.24189 16.2457C5.21674 16.0609 3.341 15.1423 1.99625 13.677C0.6515 12.2116 -0.0612416 10.3095 0.00301976 8.35756C0.0672812 6.40563 0.903718 4.55051 2.34217 3.16959C3.78063 1.78867 5.71305 0.985693 7.74631 0.924002C9.77958 0.862312 11.761 1.54654 13.2874 2.8375C14.8138 4.12846 15.7706 5.92918 15.9631 7.87332C16.1556 9.81747 15.5694 11.759 14.3238 13.303H14.3248ZM7.99977 14.3599C9.59107 14.3599 11.1172 13.7531 12.2424 12.6729C13.3676 11.5926 13.9998 10.1276 13.9998 8.59992C13.9998 7.07227 13.3676 5.6072 12.2424 4.52699C11.1172 3.44678 9.59107 2.83992 7.99977 2.83992C6.40847 2.83992 4.88235 3.44678 3.75713 4.52699C2.63191 5.6072 1.99977 7.07227 1.99977 8.59992C1.99977 10.1276 2.63191 11.5926 3.75713 12.6729C4.88235 13.7531 6.40847 14.3599 7.99977 14.3599V14.3599Z" fill="#39C5E3"/>
</svg>
